HIERARCHY
ROOT Hips
{
  OFFSET 54.2184 94.142 9.79341
  CHANNELS 6 Xposition Yposition Zposition Zrotation Xrotation Yrotation
  JOINT spine
  {
    OFFSET 0 7.80059 0.448573
    CHANNELS 3 Zrotation Xrotation Yrotation
    JOINT spine1
    {
      OFFSET 0 10.1364 0
      CHANNELS 3 Zrotation Xrotation Yrotation
      JOINT spine2
      {
        OFFSET 0 9.71251 0
        CHANNELS 3 Zrotation Xrotation Yrotation
        JOINT Neck
        {
          OFFSET 0 24.9361 1.18887
          CHANNELS 3 Zrotation Xrotation Yrotation
          JOINT Head
          {
            OFFSET 0 7.53384 0
            CHANNELS 3 Zrotation Xrotation Yrotation
            End Site
            {
              OFFSET 0 18.2361 -6.01402
            }
          }
        }
        JOINT RightShoulder
        {
          OFFSET -4.08965 10.4888 -0.569457
          CHANNELS 3 Zrotation Xrotation Yrotation
          JOINT RightArm
          {
            OFFSET 0 13.757 0
            CHANNELS 3 Zrotation Xrotation Yrotation
            JOINT RightArmRoll
            {
              OFFSET 0 6.94478 0
              CHANNELS 3 Zrotation Xrotation Yrotation
              JOINT RightForeArm
              {
                OFFSET 0 20.2277 0
                CHANNELS 3 Zrotation Xrotation Yrotation
                JOINT RightForeArmRoll
                {
                  OFFSET 0 7.79312 0
                  CHANNELS 3 Zrotation Xrotation Yrotation
                  JOINT RightHand
                  {
                    OFFSET 0 15.6391 0
                    CHANNELS 3 Zrotation Xrotation Yrotation
                    End Site
                    {
                      OFFSET 0 0 0
                    }
                  }
                }
              }
            }
          }
        }
        JOINT LeftShoulder
        {
          OFFSET 4.08965 10.4888 -0.569457
          CHANNELS 3 Zrotation Xrotation Yrotation
          JOINT LeftArm
          {
            OFFSET 0 13.757 0
            CHANNELS 3 Zrotation Xrotation Yrotation
            JOINT LeftArmRoll
            {
              OFFSET 0 6.94478 0
              CHANNELS 3 Zrotation Xrotation Yrotation
              JOINT LeftForeArm
              {
                OFFSET 0 20.2277 0
                CHANNELS 3 Zrotation Xrotation Yrotation
                JOINT LeftForeArmRoll
                {
                  OFFSET 0 7.79312 0
                  CHANNELS 3 Zrotation Xrotation Yrotation
                  JOINT LeftHand
                  {
                    OFFSET 0 15.6391 0
                    CHANNELS 3 Zrotation Xrotation Yrotation
                    End Site
                    {
                      OFFSET 0 0 0
                    }
                  }
                }
              }
            }
          }
        }
      }
    }
  }
  JOINT RightUpLeg
  {
    OFFSET -6.91416 -1.26788 -1.06358
    CHANNELS 3 Zrotation Xrotation Yrotation
    JOINT RightUpLegRoll
    {
      OFFSET 0 18.3378 0
      CHANNELS 3 Zrotation Xrotation Yrotation
      JOINT RightLeg
      {
        OFFSET 0 -22.7085 0
        CHANNELS 3 Zrotation Xrotation Yrotation
        JOINT RightLegRoll
        {
          OFFSET 0 22.7828 0
          CHANNELS 3 Zrotation Xrotation Yrotation
          JOINT RightFoot
          {
            OFFSET 0 18.9629 0
            CHANNELS 3 Zrotation Xrotation Yrotation
            JOINT RightToeBase
            {
              OFFSET 0 15.852 0
              CHANNELS 3 Zrotation Xrotation Yrotation
              End Site
              {
                OFFSET 0.00671906 7.67701 -0.884892
              }
            }
          }
        }
      }
    }
  }
  JOINT LeftUpLeg
  {
    OFFSET 6.91416 -1.26788 -1.06358
    CHANNELS 3 Zrotation Xrotation Yrotation
    JOINT LeftUpLegRoll
    {
      OFFSET 0 18.3379 0
      CHANNELS 3 Zrotation Xrotation Yrotation
      JOINT LeftLeg
      {
        OFFSET 0 22.7084 0
        CHANNELS 3 Zrotation Xrotation Yrotation
        JOINT LeftLegRoll
        {
          OFFSET 0 22.9934 0
          CHANNELS 3 Zrotation Xrotation Yrotation
          JOINT LeftFoot
          {
            OFFSET 0 18.7522 0
            CHANNELS 3 Zrotation Xrotation Yrotation
            JOINT LeftToeBase
            {
              OFFSET 0 15.852 0
              CHANNELS 3 Zrotation Xrotation Yrotation
              End Site
              {
                OFFSET -0.030112 7.677 -0.884893
              }
            }
          }
        }
      }
    }
  }
}
MOTION
Frames: 13
Frame Time: 0.00208333
54.1532 91.0642 10.86 -0.277881 -11.091 3.40423 0.604972 2.26351 0.0371392 1.21793 8.52937 -0.0289345 1.22196 10.1743 -0.0497283 -13.1218 8.55335 -0.891532 11.1991 -12.3095 -1.56981 68.2414 -4.90328 -3.62915 104.801 -0.75463 -54.8933 -5.83675e-006 2.12754e-006 4.2402e-006 -152.645 58.0778 119.997 -1.05092e-006 1.09217e-006 -3.00166 8.02896 -4.9514 0.69767 -59.2537 -4.41406 2.76751 -103.371 19.4597 27.1943 1.40756e-006 5.92027e-007 -3.51376e-006 172.774 55.5547 -151.613 -3.77331e-006 2.44955e-006 3.00682 -8.02965 -4.95143 -0.697657 177.374 2.08162 1.31613 180 7.01481e-015 178.669 -179.207 33.9884 178.689 1.61606e-006 -5.90502e-006 1.39042 -52.1763 82.0174 54.8328 8.1294 25.2419 -3.48346 -172.411 6.3866 -1.94127 4.54188e-006 -4.6773e-006 -1.05831 -7.25539 -33.5205 -1.65177 -1.14586e-006 -8.28892e-006 -0.471669 34.7307 78.3009 -36.1814 -8.13579 25.2229 3.50115 
54.1644 91.0537 10.8577 -0.334771 -11.1157 3.19003 0.611385 2.26353 0.0229616 1.2316 8.52923 -0.0584573 1.23599 10.1741 -0.0795379 -12.6727 8.68352 -0.773921 10.648 -12.4111 -1.46735 68.4809 -4.95848 -3.6718 104.226 -1.61076 -54.9676 -5.83675e-006 2.12754e-006 4.2402e-006 -152.437 57.8807 119.431 -1.05092e-006 1.09217e-006 -3.00168 8.02896 -4.9514 0.69767 -58.9832 -4.34229 2.70349 -103.291 20.2521 27.1174 1.40756e-006 5.92027e-007 -3.51376e-006 172.821 55.5636 -151.829 -3.77331e-006 2.44955e-006 3.00682 -8.02965 -4.95143 -0.697657 177.397 2.10332 1.27975 180 7.01482e-015 178.67 -179.164 33.9843 178.67 1.61606e-006 -5.90502e-006 1.38674 -51.8736 81.9929 54.5614 8.12941 25.242 -3.48404 -172.382 6.32652 -1.97394 4.54188e-006 -4.6773e-006 -1.05773 -7.28554 -33.5407 -1.66539 -1.14586e-006 -8.28892e-006 -0.472935 34.8909 78.3378 -36.3173 -8.13595 25.2251 3.49811 
54.1651 91.0616 10.8466 -0.391811 -11.1366 2.9751 0.617082 2.26244 0.00954791 1.2438 8.52692 -0.0863164 1.24849 10.1718 -0.107652 -12.2158 8.82034 -0.661517 10.0979 -12.5145 -1.36793 68.7276 -5.01033 -3.71304 103.637 -2.41542 -55.0785 -5.83675e-006 2.12754e-006 4.2402e-006 -152.247 57.6663 118.868 -1.05092e-006 1.09217e-006 -3.0017 8.02896 -4.9514 0.69767 -58.7071 -4.27026 2.63831 -103.215 21.0459 27.0231 1.40756e-006 5.92027e-007 -3.51376e-006 172.872 55.5908 -152.064 -3.77331e-006 2.44955e-006 3.00682 -8.02965 -4.95143 -0.697657 177.419 2.12668 1.24306 180 7.01482e-015 178.671 -179.122 33.9754 178.652 1.61606e-006 -5.90502e-006 1.3827 -51.5578 81.9664 54.2763 8.12941 25.2419 -3.48479 -172.353 6.26947 -2.00583 4.54188e-006 -4.6773e-006 -1.05694 -7.31668 -33.5584 -1.67922 -1.14586e-006 -8.28892e-006 -0.473786 35.0387 78.3709 -36.4412 -8.13618 25.2284 3.49369 
54.1711 91.0643 10.8448 -0.44893 -11.153 2.75947 0.621999 2.2601 -0.00298033 1.25438 8.52209 -0.112255 1.25934 10.167 -0.133811 -11.7507 8.96532 -0.554916 9.54964 -12.621 -1.27176 68.984 -5.05819 -3.75276 103.028 -3.15918 -55.228 -5.83675e-006 2.12754e-006 4.2402e-006 -152.078 57.4315 118.308 -1.05092e-006 1.09217e-006 -3.00172 8.02896 -4.9514 0.69767 -58.4254 -4.19764 2.57176 -103.142 21.8409 26.9101 1.40756e-006 5.92027e-007 -3.51376e-006 172.928 55.6376 -152.318 -3.77331e-006 2.44955e-006 3.00682 -8.02965 -4.95143 -0.697657 177.44 2.15189 1.20615 180 7.01482e-015 178.672 -179.081 33.9614 178.634 1.61606e-006 -5.90502e-006 1.3783 -51.2293 81.9379 53.9781 8.12938 25.2415 -3.48579 -172.323 6.21593 -2.0369 4.54188e-006 -4.6773e-006 -1.05593 -7.34893 -33.5733 -1.69329 -1.14586e-006 -8.28892e-006 -0.474174 35.1727 78.3996 -36.5515 -8.13649 25.2327 3.48774 
54.1851 91.0578 10.8013 -0.506948 -11.1661 2.54286 0.62613 2.25676 -0.0148022 1.26335 8.5153 -0.136635 1.26851 10.1602 -0.158374 -11.2724 9.11827 -0.45377 8.9978 -12.7297 -1.17903 69.2491 -5.10266 -3.79097 102.4 -3.84731 -55.408 -5.83675e-006 2.12754e-006 4.2402e-006 -151.93 57.1776 117.751 -1.05092e-006 1.09217e-006 -3.00174 8.02896 -4.9514 0.69767 -58.1354 -4.12536 2.50428 -103.069 22.6407 26.775 1.40756e-006 5.92027e-007 -3.51376e-006 172.995 55.6995 -152.598 -3.77331e-006 2.44955e-006 3.00682 -8.02965 -4.95143 -0.697657 177.463 2.17789 1.16782 180 7.01483e-015 178.673 -179.041 33.9426 178.616 1.61606e-006 -5.90502e-006 1.3735 -50.8868 81.9072 53.6658 8.12935 25.241 -3.48681 -172.292 6.16592 -2.06748 4.54188e-006 -4.6773e-006 -1.05461 -7.38207 -33.5875 -1.7078 -1.14586e-006 -8.28892e-006 -0.474121 35.2932 78.4244 -36.6488 -8.13684 25.2374 3.47932 
54.2045 91.0589 10.8011 -0.566499 -11.1772 2.32498 0.629548 2.25285 -0.0261894 1.27088 8.50734 -0.160017 1.27618 10.1522 -0.181906 -10.7778 9.2773 -0.357131 8.43759 -12.8387 -1.08964 69.5187 -5.14489 -3.82782 101.758 -4.4935 -55.6068 -5.83675e-006 2.12754e-006 4.2402e-006 -151.802 56.9089 117.199 -1.05092e-006 1.09217e-006 -3.00176 8.02896 -4.9514 0.69767 -57.8356 -4.05448 2.43644 -102.987 23.449 26.6163 1.40756e-006 5.92027e-007 -3.51376e-006 173.077 55.7717 -152.907 -3.77331e-006 2.44955e-006 3.00682 -8.02965 -4.95143 -0.697657 177.489 2.20367 1.12713 180 7.01483e-015 178.674 -178.999 33.9197 178.598 1.61606e-006 -5.90502e-006 1.36828 -50.5292 81.8746 53.3393 8.12932 25.2406 -3.48757 -172.258 6.11891 -2.09789 4.54188e-006 -4.6773e-006 -1.05295 -7.41583 -33.6025 -1.72285 -1.14586e-006 -8.28892e-006 -0.473701 35.402 78.4456 -36.7347 -8.13718 25.242 3.46792 
54.1951 91.0787 10.8341 -0.627236 -11.1861 2.10595 0.632299 2.24837 -0.0371593 1.27705 8.49825 -0.182443 1.28245 10.1431 -0.204451 -10.2692 9.4414 -0.264699 7.8705 -12.9475 -1.00336 69.7914 -5.18509 -3.86336 101.105 -5.10104 -55.8212 -5.83675e-006 2.12754e-006 4.2402e-006 -151.692 56.6271 116.655 -1.05092e-006 1.09217e-006 -3.00178 8.02896 -4.9514 0.69767 -57.527 -3.98484 2.36821 -102.898 24.2652 26.4355 1.40756e-006 5.92027e-007 -3.51376e-006 173.171 55.8548 -153.243 -3.77331e-006 2.44955e-006 3.00682 -8.02965 -4.95143 -0.697657 177.516 2.22953 1.08447 180 7.01483e-015 178.675 -178.958 33.8929 178.58 1.61606e-006 -5.90502e-006 1.36266 -50.1576 81.8399 52.9996 8.1293 25.2404 -3.48809 -172.223 6.07452 -2.12801 4.54188e-006 -4.6773e-006 -1.05099 -7.45022 -33.6175 -1.73835 -1.14586e-006 -8.28892e-006 -0.47294 35.4998 78.4635 -36.8097 -8.13752 25.2467 3.45404 
54.2015 91.0647 10.8123 -0.688806 -11.1928 1.88585 0.634432 2.24333 -0.0477293 1.28196 8.48806 -0.203956 1.28741 10.1329 -0.226056 -9.7488 9.60955 -0.176175 7.29802 -13.0555 -0.919959 70.0658 -5.22347 -3.89767 100.442 -5.67336 -56.0483 -5.83675e-006 2.12754e-006 4.2402e-006 -151.601 56.3342 116.118 -1.05092e-006 1.09217e-006 -3.0018 8.02896 -4.9514 0.69767 -57.2107 -3.91631 2.29957 -102.801 25.0886 26.2342 1.40756e-006 5.92027e-007 -3.51376e-006 173.275 55.9494 -153.603 -3.77331e-006 2.44955e-006 3.00682 -8.02965 -4.95143 -0.697657 177.545 2.25575 1.04026 180 7.01484e-015 178.676 -178.916 33.8623 178.562 1.61606e-006 -5.90502e-006 1.35666 -49.7731 81.8031 52.6474 8.12929 25.2402 -3.4884 -172.186 6.03238 -2.15775 4.54188e-006 -4.6773e-006 -1.04879 -7.48523 -33.6318 -1.75419 -1.14586e-006 -8.28892e-006 -0.471863 35.5869 78.4782 -36.8743 -8.13788 25.2515 3.43817 
54.1929 91.0836 10.8466 -0.750857 -11.1972 1.66478 0.635995 2.23775 -0.0579168 1.28571 8.47678 -0.2246 1.29118 10.1216 -0.246766 -9.21904 9.78074 -0.0912608 6.72166 -13.1622 -0.839205 70.3404 -5.26025 -3.93081 99.7715 -6.21401 -56.2853 -5.83675e-006 2.12754e-006 4.2402e-006 -151.526 56.0321 115.589 -1.05092e-006 1.09217e-006 -3.00182 8.02896 -4.9514 0.69767 -56.8878 -3.84875 2.23049 -102.697 25.9185 26.0139 1.40756e-006 5.92027e-007 -3.51376e-006 173.389 56.0562 -153.984 -3.77331e-006 2.44955e-006 3.00682 -8.02965 -4.95143 -0.697657 177.574 2.28262 0.994913 180 7.01484e-015 178.677 -178.873 33.8281 178.544 1.61606e-006 -5.90502e-006 1.35029 -49.3764 81.7643 52.2837 8.12929 25.2401 -3.48853 -172.148 5.99212 -2.18701 4.54188e-006 -4.6773e-006 -1.0464 -7.52086 -33.6446 -1.77028 -1.14586e-006 -8.28892e-006 -0.470497 35.6641 78.49 -36.929 -8.13827 25.2567 3.42079 
54.2062 91.0887 10.8357 -0.813035 -11.199 1.44285 0.637036 2.23165 -0.0677392 1.28839 8.46447 -0.244417 1.29384 10.1093 -0.266627 -8.68218 9.95394 -0.00965828 6.1429 -13.267 -0.760869 70.6138 -5.29563 -3.96286 99.0957 -6.72659 -56.5299 -5.83675e-006 2.12754e-006 4.2402e-006 -151.468 55.7225 115.069 -1.05092e-006 1.09217e-006 -3.00184 8.02896 -4.9514 0.69767 -56.5594 -3.782 2.16096 -102.585 26.754 25.776 1.40756e-006 5.92027e-007 -3.51376e-006 173.509 56.1758 -154.384 -3.77331e-006 2.44955e-006 3.00682 -8.02965 -4.95143 -0.697657 177.604 2.31041 0.948841 180 7.01484e-015 178.678 -178.831 33.7904 178.527 1.61606e-006 -5.90502e-006 1.34357 -48.9687 81.7235 51.9093 8.12929 25.2401 -3.4885 -172.111 5.95337 -2.21569 4.54188e-006 -4.6773e-006 -1.04386 -7.55712 -33.6552 -1.7865 -1.14586e-006 -8.28892e-006 -0.468869 35.7318 78.4991 -36.9744 -8.13869 25.2624 3.4024 
54.2168 91.1061 10.8437 -0.874982 -11.1983 1.22016 0.637603 2.22503 -0.077214 1.29009 8.45113 -0.26345 1.29551 10.096 -0.285685 -8.14051 10.1281 0.0689296 5.56324 -13.3694 -0.684721 70.8845 -5.32983 -3.99388 98.4169 -7.21478 -56.7799 -5.83675e-006 2.12754e-006 4.2402e-006 -151.423 55.4075 114.559 -1.05092e-006 1.09217e-006 -3.00186 8.02896 -4.9514 0.69767 -56.2265 -3.71594 2.09093 -102.467 27.5944 25.5221 1.40756e-006 5.92027e-007 -3.51376e-006 173.635 56.309 -154.799 -3.77331e-006 2.44955e-006 3.00682 -8.02965 -4.95143 -0.697657 177.633 2.33943 0.902457 180 7.01485e-015 178.679 -178.789 33.7494 178.509 1.61606e-006 -5.90502e-006 1.33651 -48.551 81.6806 51.5251 8.12929 25.2402 -3.48835 -172.073 5.91577 -2.24369 4.54188e-006 -4.6773e-006 -1.04124 -7.59401 -33.6629 -1.80276 -1.14586e-006 -8.28892e-006 -0.467004 35.7909 78.5055 -37.011 -8.13915 25.2689 3.3835 
54.2273 91.1053 10.8404 -0.936341 -11.195 0.996797 0.637745 2.21792 -0.0863585 1.29092 8.4368 -0.281743 1.29629 10.0816 -0.303985 -7.59633 10.3023 0.1448 4.98416 -13.4688 -0.610532 71.151 -5.36307 -4.02394 97.7372 -7.68231 -57.0333 -5.83675e-006 2.12754e-006 4.2402e-006 -151.391 55.089 114.059 -1.05092e-006 1.09217e-006 -3.00188 8.02896 -4.9514 0.69767 -55.8902 -3.65041 2.0204 -102.342 28.4386 25.2536 1.40756e-006 5.92027e-007 -3.51376e-006 173.764 56.4563 -155.227 -3.77331e-006 2.44955e-006 3.00682 -8.02965 -4.95143 -0.697657 177.662 2.36995 0.856172 180 7.01485e-015 178.681 -178.748 33.7053 178.492 1.61606e-006 -5.90502e-006 1.32914 -48.1243 81.6356 51.1321 8.1293 25.2403 -3.4881 -172.037 5.87893 -2.27091 4.54188e-006 -4.6773e-006 -1.03858 -7.63151 -33.6669 -1.81896 -1.14586e-006 -8.28892e-006 -0.46493 35.8418 78.5096 -37.0394 -8.13967 25.2762 3.36455 
54.2496 91.1124 10.8202 -0.99675 -11.1888 0.77287 0.637509 2.21032 -0.0951902 1.29095 8.42151 -0.299338 1.29628 10.0664 -0.321573 -7.05193 10.4754 0.218248 4.40717 -13.5648 -0.538074 71.4119 -5.39555 -4.05312 97.059 -8.13292 -57.2883 -5.83675e-006 2.12754e-006 4.2402e-006 -151.371 54.7687 113.569 -1.05092e-006 1.09217e-006 -3.0019 8.02896 -4.9514 0.69767 -55.5516 -3.58527 1.94934 -102.211 29.2858 24.9721 1.40756e-006 5.92027e-007 -3.51376e-006 173.895 56.6188 -155.666 -3.77331e-006 2.44955e-006 3.00682 -8.02965 -4.95143 -0.697657 177.688 2.40226 0.8104 180 7.01485e-015 178.682 -178.707 33.6582 178.474 1.61606e-006 -5.90502e-006 1.32146 -47.6896 81.5885 50.731 8.12931 25.2405 -3.48778 -172.002 5.84251 -2.29724 4.54188e-006 -4.6773e-006 -1.03593 -7.66963 -33.6665 -1.83499 -1.14586e-006 -8.28892e-006 -0.462671 35.8852 78.5114 -37.0603 -8.14026 25.2847 3.34607 
